Poster:
 
http://www.hotimg.com/direct/k7jctyn.jpg

Screenshots:
 
http://www.hotimg.com/direct/Ray6W8n.png
 
http://www.hotimg.com/direct/VcFbFgM.png
 
http://www.hotimg.com/direct/zCatmda.png
 
http://www.hotimg.com/direct/jeE3Vbg.png

Information:

Drive (2011) BDRip XviD-COCAIN
 
http://www.imdb.com/title/tt0780504/

Title: Drive
Genre: Crime, Drama, Thriller
Rating: 8.1/10 (98,146 Votes) 79%
Staring: Nicolas Winding Refn, Ryan Gosling, Shannon, Bernie Rose, Driver…
Runtime: 100 Mins
Release Date: 3 November 2011

Synopsis:
A Hollywood stunt performer who moonlights as a wheelman discovers that a contract has been put on him after a heist gone wrong.

[code]
Format : AVI
Format/Info : Audio Video Interleave
File size : 698 MiB
Duration : 1h 40mn
Overall bit rate : 968 Kbps

Video
ID : 0
Format : MPEG-4 Visual
Format profile : Advanced Simple@L5
Format settings, BVOP : 1
Format settings, QPel : No
Format settings, GMC : No warppoints
Format settings, Matrix : Default (H.263)
Codec ID : XVID
Codec ID/Hint : XviD
Duration : 1h 40mn
Bit rate : 834 Kbps
Width : 720 pixels
Height : 304 pixels
Display aspect ratio : 2.35:1
Frame rate : 23.976 fps
Color space : YUV
Chroma subsampling : 4:2:0
Bit depth : 8 bits
Scan type : Progressive
Compression mode : Lossy
Bits/(Pixel*Frame) : 0.159
Stream size : 601 MiB (86%)
Writing library : XviD 1.2.1 (UTC 2008-12-04)

Audio
ID : 1
Format : MPEG Audio
Format version : Version 1
Format profile : Layer 3
Mode : Joint stereo
Mode extension : MS Stereo
Codec ID : 55
Codec ID/Hint : MP3
Duration : 1h 40mn
Bit rate mode : Constant
Bit rate : 128 Kbps
Channel(s) : 2 channels
Sampling rate : 48.0 KHz
Compression mode : Lossy
Stream size : 92.3 MiB (13%)
Alignment : Aligned on interleaves
Interleave, duration : 167 ms (4.00 video frames)
Interleave, preload duration : 216 ms
Writing library : LAME3.98r
Encoding settings : -m j -V 4 -q 2 -lowpass 17 -b 128